<svg xmlns="http://www.w3.org/2000/svg" xmlns:xlink="http://www.w3.org/1999/xlink" width="90" height="90" viewBox="0 0 141 82" fill="#fff" fill-rule="evenodd" stroke="#000" stroke-linecap="round" stroke-linejoin="round"><use xlink:href="#A" x=".5" y=".5"/><symbol id="A" overflow="visible"><path d="M139.053 42c1.398-1.393 1.118-3.622 0-5.015l-6.7-6.687L102.15 1.045c-1.398-1.393-3.355-1.393-4.753 0h0c-1.398 1.393-1.678 3.622 0 5.015l31.6 30.926a3.52 3.52 0 0 1 0 5.015l-32.15 32.04a3.52 3.52 0 0 0 0 5.015h0c1.398 1.393 3.635 1.115 4.753 0l30.193-29.812 7.27-7.244zM.946 42c-1.398-1.393-1.118-3.622 0-5.015l6.7-6.687L37.85 1.045c1.398-1.393 3.355-1.393 4.753 0h0c1.398 1.393 1.678 3.622 0 5.015L11.57 36.986a3.52 3.52 0 0 0 0 5.015l31.592 32.04a3.52 3.52 0 0 1 0 5.015h0c-1.398 1.393-3.635 1.115-4.753 0L7.936 49.802l-.28-.28L.946 42z" fill="#3999c6" stroke="none"/><path d="M51 39.493c0 5.293-4.473 9.194-9.226 9.194s-9.785-4.458-9.785-9.194 3.914-9.194 9.785-9.194c5.6 0 9.226 4.458 9.226 9.194zm28.226 0c0 5.293-4.473 9.194-9.226 9.194s-9.785-4.458-9.785-9.194S64.688 30.3 70 30.3s9.226 4.458 9.226 9.194zm10.074 0c0-5.094 4.115-9.194 9.226-9.194s9.226 4.1 9.226 9.194-4.115 9.194-9.226 9.194-9.226-4.1-9.226-9.194z" stroke="none" fill="#7fba00"/></symbol></svg>